<svg width="32" height="32" viewBox="0 0 32 32" fill="none" xmlns="http://www.w3.org/2000/svg">
<path d="M0 10C0 5.286 0 2.929 1.464 1.464C2.93 0 5.286 0 10 0H22C26.714 0 29.071 0 30.535 1.464C32 2.93 32 5.286 32 10V22C32 26.714 32 29.071 30.535 30.535C29.072 32 26.714 32 22 32H10C5.286 32 2.929 32 1.464 30.535C0 29.072 0 26.714 0 22V10Z" fill="#F5F7FA"/>
<path d="M20.5999 13.222C20.2329 13.956 20.0499 14.881 20.0499 15.994C20.0499 17.59 20.4339 18.779 21.2029 19.559C21.9729 20.329 23.1269 20.713 24.6649 20.713C25.2739 20.713 25.8939 20.667 26.5249 20.575C27.1569 20.495 27.7189 20.385 28.2129 20.248L27.7829 18.009C27.4829 18.067 27.1969 18.119 26.9209 18.164C26.3802 18.2541 25.8331 18.3003 25.2849 18.302C24.8029 18.302 24.3839 18.216 24.0279 18.044C23.6895 17.8662 23.4132 17.5896 23.2359 17.251C23.0629 16.896 22.9769 16.448 22.9769 15.908C22.9769 15.346 23.0569 14.886 23.2179 14.531C23.3909 14.163 23.6429 13.893 23.9759 13.721C24.3209 13.537 24.7399 13.445 25.2329 13.445C25.4859 13.445 25.7439 13.457 26.0079 13.48C26.2719 13.503 26.5419 13.532 26.8179 13.566C27.0929 13.6 27.3679 13.646 27.6439 13.704L28.0409 11.362C27.7361 11.2754 27.4252 11.2119 27.1109 11.172C26.7516 11.1131 26.3894 11.073 26.0259 11.052C25.6592 11.0174 25.2912 11.0001 24.9229 11C23.8669 11 22.9769 11.19 22.2539 11.568C21.5392 11.927 20.9595 12.5071 20.6009 13.222H20.5999ZM10.9699 11.138C11.1449 11.08 11.3309 11.04 11.5299 11.018L12.5029 13.715C12.344 13.684 12.1838 13.6596 12.0229 13.642C11.5273 13.5461 11.0153 13.5819 10.5379 13.746C10.2279 13.837 9.8939 14.01 9.5369 14.263V20.565H6.7229V11.173H9.2779V12.26C9.5999 11.961 9.8939 11.72 10.1579 11.535C10.4229 11.351 10.6939 11.219 10.9699 11.138Z" fill="#0B0C12"/>
<path d="M20.368 13.091C19.98 13.862 19.785 14.831 19.785 16.001C19.785 16.217 19.792 16.426 19.805 16.629L18.407 20.565H15.195L11.752 11H14.746L16.887 18.13L18.769 11.155L21.739 11.19L21.559 11.694C21.0573 12.0591 20.6491 12.5378 20.368 13.091ZM3.346 18.098C3.116 18.34 3 18.715 3 19.224C3 19.72 3.115 20.095 3.346 20.349C3.589 20.592 3.987 20.713 4.541 20.713C5.107 20.713 5.505 20.592 5.736 20.349C5.979 20.095 6.1 19.72 6.1 19.224C6.1 18.715 5.979 18.34 5.736 18.098C5.506 17.843 5.107 17.717 4.541 17.717C3.987 17.717 3.589 17.844 3.346 18.097V18.098Z" fill="#0B0C12"/>
</svg>
