<svg width="11" height="17" viewBox="0 0 11 17" fill="none" xmlns="http://www.w3.org/2000/svg">
<path d="M6.0161 16.328V14.864C7.2481 14.784 8.2361 14.42 8.9801 13.772C9.7241 13.124 10.0961 12.264 10.0961 11.192V11.048C10.0961 10.056 9.7481 9.276 9.0521 8.708C8.3561 8.14 7.3441 7.776 6.0161 7.616V4.184C6.5761 4.328 7.0281 4.584 7.3721 4.952C7.7161 5.32 7.8881 5.768 7.8881 6.296V6.584H9.7121V6.152C9.7121 5.704 9.6241 5.276 9.4481 4.868C9.26856 4.45466 9.0166 4.07672 8.7041 3.752C8.36747 3.40376 7.97381 3.11562 7.5401 2.9C7.05982 2.6601 6.546 2.49422 6.0161 2.408V0.872002H4.2881V2.36C3.80391 2.40529 3.32781 2.51423 2.8721 2.684C2.4241 2.852 2.0321 3.076 1.6961 3.356C1.3601 3.636 1.0921 3.972 0.892104 4.364C0.692104 4.756 0.592104 5.208 0.592104 5.72V5.864C0.592104 6.824 0.908103 7.572 1.5401 8.108C2.1721 8.644 3.0881 8.992 4.2881 9.152V13.064C3.5841 12.904 3.0401 12.592 2.6561 12.128C2.2721 11.664 2.0801 11.048 2.0801 10.28V9.992H0.256104V10.568C0.256104 11.032 0.336103 11.492 0.496103 11.948C0.656103 12.404 0.900104 12.828 1.2281 13.22C1.5561 13.612 1.9721 13.948 2.4761 14.228C2.9801 14.508 3.5841 14.704 4.2881 14.816V16.328H6.0161ZM4.2881 7.424C3.6001 7.296 3.1241 7.092 2.8601 6.812C2.5961 6.532 2.4641 6.168 2.4641 5.72C2.4641 5.256 2.6401 4.888 2.9921 4.616C3.3441 4.344 3.7761 4.168 4.2881 4.088V7.424V7.424ZM6.0161 13.136V9.344C6.7841 9.472 7.3441 9.672 7.6961 9.944C8.0481 10.216 8.2241 10.632 8.2241 11.192C8.2241 11.736 8.0281 12.176 7.6361 12.512C7.2441 12.848 6.7041 13.056 6.0161 13.136Z" fill="#7CACCF"/>
</svg>
