<svg width="87" height="54" viewBox="0 0 87 54" fill="none" xmlns="http://www.w3.org/2000/svg">
<path d="M6.72 17.472C7.664 17.472 8.512 17.352 9.264 17.112C10.016 16.872 10.656 16.528 11.184 16.08C11.7063 15.6396 12.1209 15.0854 12.396 14.46C12.676 13.828 12.816 13.12 12.816 12.336V12.048C12.816 10.576 12.352 9.464 11.424 8.712C10.496 7.96 9.152 7.424 7.392 7.104C6.80422 7.00362 6.22313 6.86737 5.652 6.696C5.196 6.552 4.828 6.388 4.548 6.204C4.268 6.02 4.072 5.812 3.96 5.58C3.8454 5.33616 3.78794 5.06939 3.792 4.8C3.792 4.24 4.024 3.796 4.488 3.468C4.952 3.14 5.584 2.976 6.384 2.976C7.328 2.976 8.06 3.224 8.58 3.72C9.1 4.216 9.36 4.8 9.36 5.472V6.048H12.528V5.184C12.5304 4.50797 12.3957 3.83848 12.132 3.216C11.8637 2.58585 11.4625 2.02101 10.956 1.56C10.436 1.08 9.792 0.7 9.024 0.42C8.256 0.14 7.376 0 6.384 0C5.504 0 4.708 0.12 3.996 0.36C3.284 0.6 2.676 0.936 2.172 1.368C1.668 1.8 1.276 2.308 0.996 2.892C0.716 3.476 0.576 4.112 0.576 4.8V4.944C0.576 5.776 0.72 6.48 1.008 7.056C1.29099 7.62604 1.70663 8.11986 2.22 8.496C2.74 8.88 3.352 9.188 4.056 9.42C4.76 9.652 5.536 9.84 6.384 9.984C7.024 10.096 7.552 10.232 7.968 10.392C8.384 10.552 8.712 10.732 8.952 10.932C9.192 11.132 9.36 11.356 9.456 11.604C9.552 11.852 9.6 12.112 9.6 12.384C9.6 12.96 9.368 13.456 8.904 13.872C8.44 14.288 7.728 14.496 6.768 14.496C5.536 14.496 4.628 14.196 4.044 13.596C3.46 12.996 3.168 12.192 3.168 11.184V10.608H0V11.328C0 12.208 0.144 13.02 0.432 13.764C0.711915 14.4956 1.1457 15.1586 1.704 15.708C2.264 16.26 2.964 16.692 3.804 17.004C4.644 17.316 5.616 17.472 6.72 17.472V17.472ZM28.72 17.136V10.8H32.128C32.992 10.8 33.744 10.656 34.384 10.368C34.9901 10.1043 35.5339 9.71585 35.98 9.228C36.4018 8.75972 36.7279 8.21347 36.94 7.62C37.156 7.02 37.264 6.408 37.264 5.784V5.208C37.264 4.6 37.156 4.004 36.94 3.42C36.7272 2.8412 36.4008 2.3108 35.98 1.86C35.5299 1.3858 34.9865 1.00992 34.384 0.756C33.744 0.476 32.992 0.336 32.128 0.336H25.552V17.136H28.72V17.136ZM31.816 7.776H28.72V3.36H31.816C32.52 3.36 33.076 3.552 33.484 3.936C33.892 4.32 34.096 4.816 34.096 5.424V5.712C34.096 6.32 33.892 6.816 33.484 7.2C33.076 7.584 32.52 7.776 31.816 7.776V7.776ZM61.28 17.136V14.112H53.648V0.336H50.48V17.136H61.28V17.136ZM86.16 17.136V14.112H82.128V3.36H86.16V0.336H74.928V3.36H78.96V14.112H74.928V17.136H86.16V17.136ZM8.064 53.136V39.36H12.528V36.336H0.432V39.36H4.896V53.136H8.064V53.136ZM32.752 53.136V39.36H37.216V36.336H25.12V39.36H29.584V53.136H32.752V53.136ZM61.376 53.136V50.112H53.648V46.224H60.8V43.2H53.648V39.36H61.088V36.336H50.48V53.136H61.376V53.136ZM78.12 53.136V46.8H81.768C82.232 46.8 82.564 46.92 82.764 47.16C82.964 47.4 83.064 47.712 83.064 48.096V53.136H86.232V47.328C86.232 46.768 86.068 46.304 85.74 45.936C85.412 45.568 84.968 45.352 84.408 45.288V44.856C85.176 44.536 85.744 44.076 86.112 43.476C86.4741 42.8968 86.6655 42.2271 86.664 41.544V40.968C86.664 40.328 86.548 39.728 86.316 39.168C86.0863 38.6113 85.7429 38.1086 85.308 37.692C84.868 37.268 84.32 36.936 83.664 36.696C83.008 36.456 82.248 36.336 81.384 36.336H74.952V53.136H78.12V53.136ZM81.144 43.776H78.12V39.36H81.144C81.912 39.36 82.496 39.564 82.896 39.972C83.296 40.38 83.496 40.864 83.496 41.424V41.712C83.496 42.368 83.296 42.876 82.896 43.236C82.496 43.596 81.912 43.776 81.144 43.776V43.776Z" fill="#0061A7"/>
</svg>
